<?xml version="1.0" encoding="UTF-8" standalone="no"?>
<!-- Created with Inkscape (http://www.inkscape.org/) -->

<svg
   xmlns:dc="http://purl.org/dc/elements/1.1/"
   xmlns:cc="http://creativecommons.org/ns#"
   xmlns:rdf="http://www.w3.org/1999/02/22-rdf-syntax-ns#"
   xmlns:svg="http://www.w3.org/2000/svg"
   xmlns="http://www.w3.org/2000/svg"
   xmlns:sodipodi="http://sodipodi.sourceforge.net/DTD/sodipodi-0.dtd"
   xmlns:inkscape="http://www.inkscape.org/namespaces/inkscape"
   width="210mm"
   height="297mm"
   viewBox="0 0 210 297"
   version="1.1"
   id="svg1876"
   sodipodi:docname="CloseDialogButton_Over.svg"
   inkscape:version="0.92.5 (2060ec1f9f, 2020-04-08)"
   inkscape:export-filename="C:\Users\alber\Documents\Projects\Games\Sliding Puzzle\01.01.00\Gimp\CloseDialogButton_Over.png"
   inkscape:export-xdpi="96"
   inkscape:export-ydpi="96">
  <defs
     id="defs1870" />
  <sodipodi:namedview
     id="base"
     pagecolor="#ffffff"
     bordercolor="#666666"
     borderopacity="1.0"
     inkscape:pageopacity="0.0"
     inkscape:pageshadow="2"
     inkscape:zoom="15.839192"
     inkscape:cx="8.0217124"
     inkscape:cy="1102.9039"
     inkscape:document-units="mm"
     inkscape:current-layer="layer1"
     showgrid="false"
     inkscape:window-width="1920"
     inkscape:window-height="986"
     inkscape:window-x="-11"
     inkscape:window-y="-11"
     inkscape:window-maximized="1" />
  <metadata
     id="metadata1873">
    <rdf:RDF>
      <cc:Work
         rdf:about="">
        <dc:format>image/svg+xml</dc:format>
        <dc:type
           rdf:resource="http://purl.org/dc/dcmitype/StillImage" />
        <dc:title />
      </cc:Work>
    </rdf:RDF>
  </metadata>
  <g
     inkscape:label="Capa 1"
     inkscape:groupmode="layer"
     id="layer1">
    <path
       inkscape:connector-curvature="0"
       style="fill:#cd5d12;stroke:none;stroke-width:0.23849764"
       d="M 6.9445539,2.5336819 Q 5.8474647,1.4365927 4.2853052,1.4365927 q -1.5502348,0 -2.6592489,1.0970892 -1.09708921,1.1090142 -1.09708921,2.659249 0,1.5621596 1.09708921,2.6592488 1.0970892,1.0970892 2.6592489,1.0970892 1.5502346,0 2.6473239,-1.0970892 l 0.011925,-0.011925 q 1.097089,-1.097089 1.097089,-2.6473237 0,-1.5621597 -1.0970893,-2.659249 M 7.2784507,2.1878603 v 0.011925 q 1.2401877,1.2401879 1.2401877,2.9931457 0,1.7529577 -1.2401877,2.9931455 -1.2401878,1.2401878 -2.9931455,1.2401878 -1.7529578,0 -2.9931456,-1.2401878 H 1.2802347 Q 0.05197176,6.9458886 0.05197176,5.1929309 q 0,-1.7529578 1.22826294,-2.9931458 l 0.011925,-0.011925 q 1.2401879,-1.22826297 2.9931457,-1.22826297 1.7529577,0 2.9931455,1.22826287"
       id="path1643"
       inkscape:export-xdpi="96"
       inkscape:export-ydpi="96" />
    <path
       inkscape:connector-curvature="0"
       style="fill:#fa8132;stroke:none;stroke-width:0.23849764"
       d="m 6.9445539,2.5336819 q 1.0970893,1.0970893 1.0970893,2.659249 0,1.5502347 -1.0970893,2.6473239 l -0.011925,0.011925 q -1.0970894,1.0970891 -2.647324,1.0970891 -1.5621597,0 -2.6592489,-1.0970892 -1.09708921,-1.0970892 -1.09708921,-2.6592488 0,-1.5502348 1.09708921,-2.659249 1.1090141,-1.0970892 2.6592489,-1.0970892 1.5621595,0 2.6592487,1.0970892 m 0.6200939,2.659249 q 0,-1.3594367 -0.9659154,-2.3253523 Q 5.6447418,1.913588 4.2853052,1.913588 q -1.3594367,0 -2.3253522,0.9539906 -0.9539906,0.9659156 -0.9539906,2.3253523 0,1.3594366 0.9539906,2.3134272 0.9659155,0.9659155 2.3253522,0.9659155 1.3594366,0 2.3134272,-0.9659155 0.9659154,-0.9539906 0.9659154,-2.3134272"
       id="path1645"
       inkscape:export-xdpi="96"
       inkscape:export-ydpi="96" />
    <path
       inkscape:connector-curvature="0"
       style="fill:#e86a17;stroke:none;stroke-width:0.23849764"
       d="m 7.5646478,5.1929309 q 0,1.3594366 -0.9659154,2.3134272 -0.9539906,0.9659155 -2.3134272,0.9659155 -1.3594367,0 -2.3253522,-0.9659155 -0.9539906,-0.9539906 -0.9539906,-2.3134272 0,-1.3594367 0.9539906,-2.3253523 0.9659155,-0.9539906 2.3253522,-0.9539906 1.3594366,0 2.3134272,0.9539906 0.9659154,0.9659156 0.9659154,2.3253523"
       id="path1647"
       inkscape:export-xdpi="96"
       inkscape:export-ydpi="96" />
    <path
       inkscape:connector-curvature="0"
       style="fill:#e6e6e6;fill-opacity:1;stroke:none;stroke-width:0.23849764"
       d="m 6.3900471,3.8185875 q 0.095399,0.095399 0,0.1788732 L 5.1975585,5.2018739 6.3900471,6.394362 q 0.095399,0.08347 0,0.1788737 L 5.6745541,7.2887286 5.4837557,7.3006546 4.2912672,6.0962412 3.0868548,7.2887298 q -0.0954,0.095399 -0.1907985,0 L 2.180563,6.5732366 q -0.095399,-0.0954 0,-0.1788737 L 3.3849767,5.2018739 2.180563,3.9974607 q -0.08347,-0.083474 0,-0.1788732 L 2.9079811,3.0911697 q 0.08347,-0.083474 0.1788737,0 L 4.2793424,4.2955828 5.4837557,3.0911697 q 0.095399,-0.083474 0.1788737,0 l 0.7274177,0.7274178"
       id="path1163"
       inkscape:export-xdpi="96"
       inkscape:export-ydpi="96" />
  </g>
</svg>
