<?xml version="1.0" encoding="UTF-8" standalone="no"?>
<!-- Created with Inkscape (http://www.inkscape.org/) -->

<svg
   xmlns:dc="http://purl.org/dc/elements/1.1/"
   xmlns:cc="http://creativecommons.org/ns#"
   xmlns:rdf="http://www.w3.org/1999/02/22-rdf-syntax-ns#"
   xmlns:svg="http://www.w3.org/2000/svg"
   xmlns="http://www.w3.org/2000/svg"
   xmlns:sodipodi="http://sodipodi.sourceforge.net/DTD/sodipodi-0.dtd"
   xmlns:inkscape="http://www.inkscape.org/namespaces/inkscape"
   width="210mm"
   height="297mm"
   viewBox="0 0 210 297"
   version="1.1"
   id="svg1876"
   sodipodi:docname="CloseDialogButton_Pressed.svg"
   inkscape:version="0.92.5 (2060ec1f9f, 2020-04-08)">
  <defs
     id="defs1870">
    <meshgradient
       inkscape:collect="always"
       id="meshgradient2469"
       gradientUnits="userSpaceOnUse"
       x="2.1328635"
       y="3.0494328"
       gradientTransform="matrix(0.80127775,0,0,0.80127775,0.85158548,1.0319507)">
      <meshrow
         id="meshrow2471">
        <meshpatch
           id="meshpatch2473">
          <stop
             path="c 1.43496,0  2.86992,0  4.30488,0"
             style="stop-color:#ffffff;stop-opacity:1"
             id="stop2475" />
          <stop
             path="c 0,1.429  0,2.858  0,4.287"
             style="stop-color:#e6e6e6;stop-opacity:1"
             id="stop2477" />
          <stop
             path="c -1.43496,0  -2.86992,0  -4.30488,0"
             style="stop-color:#ffffff;stop-opacity:1"
             id="stop2479" />
          <stop
             path="c 0,-1.429  0,-2.858  0,-4.287"
             style="stop-color:#e6e6e6;stop-opacity:1"
             id="stop2481" />
        </meshpatch>
      </meshrow>
    </meshgradient>
  </defs>
  <sodipodi:namedview
     id="base"
     pagecolor="#ffffff"
     bordercolor="#666666"
     borderopacity="1.0"
     inkscape:pageopacity="0.0"
     inkscape:pageshadow="2"
     inkscape:zoom="15.839192"
     inkscape:cx="-2.2095703"
     inkscape:cy="1102.9039"
     inkscape:document-units="mm"
     inkscape:current-layer="layer1"
     showgrid="false"
     inkscape:window-width="1920"
     inkscape:window-height="986"
     inkscape:window-x="-11"
     inkscape:window-y="-11"
     inkscape:window-maximized="1" />
  <metadata
     id="metadata1873">
    <rdf:RDF>
      <cc:Work
         rdf:about="">
        <dc:format>image/svg+xml</dc:format>
        <dc:type
           rdf:resource="http://purl.org/dc/dcmitype/StillImage" />
        <dc:title />
      </cc:Work>
    </rdf:RDF>
  </metadata>
  <g
     inkscape:label="Capa 1"
     inkscape:groupmode="layer"
     id="layer1">
    <path
       inkscape:connector-curvature="0"
       style="fill:#cd5d12;stroke:none;stroke-width:0.23849764"
       d="M 6.9445539,2.5336819 Q 5.8474647,1.4365927 4.2853052,1.4365927 q -1.5502348,0 -2.6592489,1.0970892 -1.09708921,1.1090142 -1.09708921,2.659249 0,1.5621596 1.09708921,2.6592488 1.0970892,1.0970892 2.6592489,1.0970892 1.5502346,0 2.6473239,-1.0970892 l 0.011925,-0.011925 q 1.097089,-1.097089 1.097089,-2.6473237 0,-1.5621597 -1.0970893,-2.659249 M 7.2784507,2.1878603 v 0.011925 q 1.2401877,1.2401879 1.2401877,2.9931457 0,1.7529577 -1.2401877,2.9931455 -1.2401878,1.2401878 -2.9931455,1.2401878 -1.7529578,0 -2.9931456,-1.2401878 H 1.2802347 Q 0.05197176,6.9458886 0.05197176,5.1929309 q 0,-1.7529578 1.22826294,-2.9931458 l 0.011925,-0.011925 q 1.2401879,-1.22826297 2.9931457,-1.22826297 1.7529577,0 2.9931455,1.22826287"
       id="path1643"
       inkscape:export-xdpi="96"
       inkscape:export-ydpi="96" />
    <path
       inkscape:connector-curvature="0"
       style="fill:#fa8132;stroke:none;stroke-width:0.23849764"
       d="m 6.9445539,2.5336819 q 1.0970893,1.0970893 1.0970893,2.659249 0,1.5502347 -1.0970893,2.6473239 l -0.011925,0.011925 q -1.0970894,1.0970891 -2.647324,1.0970891 -1.5621597,0 -2.6592489,-1.0970892 -1.09708921,-1.0970892 -1.09708921,-2.6592488 0,-1.5502348 1.09708921,-2.659249 1.1090141,-1.0970892 2.6592489,-1.0970892 1.5621595,0 2.6592487,1.0970892 m 0.6200939,2.659249 q 0,-1.3594367 -0.9659154,-2.3253523 Q 5.6447418,1.913588 4.2853052,1.913588 q -1.3594367,0 -2.3253522,0.9539906 -0.9539906,0.9659156 -0.9539906,2.3253523 0,1.3594366 0.9539906,2.3134272 0.9659155,0.9659155 2.3253522,0.9659155 1.3594366,0 2.3134272,-0.9659155 0.9659154,-0.9539906 0.9659154,-2.3134272"
       id="path1645"
       inkscape:export-xdpi="96"
       inkscape:export-ydpi="96" />
    <path
       inkscape:connector-curvature="0"
       style="fill:#e86a17;stroke:none;stroke-width:0.23849764"
       d="m 7.5646478,5.1929309 q 0,1.3594366 -0.9659154,2.3134272 -0.9539906,0.9659155 -2.3134272,0.9659155 -1.3594367,0 -2.3253522,-0.9659155 -0.9539906,-0.9539906 -0.9539906,-2.3134272 0,-1.3594367 0.9539906,-2.3253523 0.9659155,-0.9539906 2.3253522,-0.9539906 1.3594366,0 2.3134272,0.9539906 0.9659154,0.9659156 0.9659154,2.3253523"
       id="path1647"
       inkscape:export-xdpi="96"
       inkscape:export-ydpi="96" />
    <path
       inkscape:connector-curvature="0"
       style="fill:url(#meshgradient2469);fill-opacity:1;stroke:none;stroke-width:0.19110286"
       d="m 5.9717881,4.0916998 q 0.076441,0.076441 0,0.1433272 L 5.0162735,5.2000965 5.9717881,6.1556106 q 0.076441,0.066883 0,0.1433276 L 5.3984794,6.8722467 5.2455969,6.8818027 4.2900824,5.9167331 3.3250136,6.8722477 q -0.076442,0.076441 -0.1528826,0 L 2.5988221,6.2989389 q -0.076441,-0.076442 0,-0.1433275 L 3.563892,5.2000965 2.5988221,4.235027 q -0.066883,-0.066886 0,-0.1433272 l 0.582864,-0.5828636 q 0.066883,-0.066886 0.1433275,0 L 4.2805273,4.4739056 5.2455969,3.5088362 q 0.076441,-0.066886 0.1433275,0 l 0.5828637,0.5828636"
       id="path1163"
       inkscape:export-xdpi="96"
       inkscape:export-ydpi="96" />
  </g>
</svg>
